<?xml version="1.0" encoding="UTF-8" standalone="no"?>
<svg
   width="279"
   height="334"
   viewBox="0 0 2790 3340"
   version="1.1"
   id="svg56"
   sodipodi:docname="favicon.svg"
   inkscape:version="1.2.2 (732a01da63, 2022-12-09)"
   xmlns:inkscape="http://www.inkscape.org/namespaces/inkscape"
   xmlns:sodipodi="http://sodipodi.sourceforge.net/DTD/sodipodi-0.dtd"
   xmlns="http://www.w3.org/2000/svg"
   xmlns:svg="http://www.w3.org/2000/svg">
  <defs
     id="defs60" />
  <sodipodi:namedview
     id="namedview58"
     pagecolor="#505050"
     bordercolor="#eeeeee"
     borderopacity="1"
     inkscape:showpageshadow="0"
     inkscape:pageopacity="0"
     inkscape:pagecheckerboard="0"
     inkscape:deskcolor="#d1d1d1"
     showgrid="false"
     inkscape:lockguides="false"
     inkscape:zoom="0.84730539"
     inkscape:cx="74.353357"
     inkscape:cy="109.16961"
     inkscape:window-width="1360"
     inkscape:window-height="749"
     inkscape:window-x="-4"
     inkscape:window-y="-4"
     inkscape:window-maximized="1"
     inkscape:current-layer="g53" />
  <g
     id="l78dIfKq9PtT8brAMcsxRNh"
     fill="rgb(0,43,58)"
     style="transform: none;">
    <g
       id="g53"
       style="transform: none;">
      <path
         id="path442"
         d="m 642,3329 c -62,-18 -67,-96 -6,-119 14,-6 97,-10 184,-10 h 160 l 6,-27 c 3,-16 14,-61 24,-100 l 18,-73 H 675 322 l -48,-33 c -33,-23 -58,-51 -76,-87 l -28,-52 v -848 -847 l -39,-18 C 85,1095 25,1036 11,997 -9,945 18,891 86,850 c 35,-22 184,-49 329,-58 89,-6 100,-9 103,-27 4,-26 85,-328 127,-476 44,-154 78,-208 160,-252 33,-18 56,-22 130,-21 79,0 101,5 180,36 140,56 203,72 285,72 76,0 82,-2 290,-80 99,-37 223,-40 286,-7 40,21 102,83 122,120 6,10 27,84 47,163 19,80 55,218 78,306 l 42,161 114,7 c 209,13 312,39 364,94 67,70 33,150 -97,224 l -75,43 -3,850 -3,851 -35,49 c -20,28 -54,58 -79,72 -44,23 -48,23 -379,23 h -334 l 5,23 c 3,12 13,57 22,100 l 17,77 h 158 c 144,0 160,2 184,21 31,25 34,61 6,89 -20,20 -33,20 -717,20 -384,0 -707,2 -718,4 -11,3 -35,0 -53,-5 z m 748,-125 c 0,-3 -19,-28 -42,-55 -37,-45 -45,-49 -84,-49 h -42 l 1,-47 2,-48 -37,-3 -36,-3 -11,53 c -6,29 -18,77 -25,106 l -14,52 h 144 c 79,0 144,-3 144,-6 z m 1022,-363 28,-31 v -805 c 0,-443 -4,-805 -8,-805 -5,0 -28,7 -53,15 l -44,15 v 624 c 0,670 1,661 -52,685 -17,8 -285,11 -922,11 H 464 c -25.79902,0 -54,-12.2485 -54,-56 V 1222 l -47,-16 c -26,-9 -50,-16 -55,-16 -4,0 -8,366 -8,814 0,801 0,814 20,839 11,14 33,27 48,29 15,2 475,3 1022,2 l 994,-2 z M 1390,1340 h -77 c -175,0 -479,-29 -637,-60 -118,-24 -111,-24 -130,-4 -14,14 -16,79 -16,566 0,499 2,553 17,570 15,17 42,18 430,18 h 413 z m 513,-155 49,-8 -79,-41 c -43,-24 -98,-55 -122,-71 l -45,-28 -310,-2 c -359,-3 -550,-22 -773,-81 -72,-19 -156,-34 -185,-34 -77,1 -250,25 -277,39 -22,12 -22,13 -4,25 43,29 231,98 340,125 237,59 404,81 673,90 212,7 655,-2 733,-14 z M 1558,910 h 52 v -97 -98 l -227,-2 c -125,-2 -275,-7 -333,-13 -96,-10 -295,-42 -345,-56 -19,-5 -23,4 -44,83 -12,48 -22,93 -22,98 0,36 544,99 771,89 52,-2 119,-4 148,-4 z m 323,-26 c 12,-3 18,-22 22,-75 7,-86 0,-132 -19,-125 -8,3 -43,8 -79,12 l -65,7 v 99 100 l 63,-7 c 34,-3 69,-8 78,-11 z m 209,-35 c 27,-6 50,-16 50,-22 0,-7 -10,-49 -22,-94 -23,-84 -31,-93 -72,-77 -13,5 -16,24 -16,105 0,54 2,99 5,99 2,0 27,-5 55,-11 z M 1388,466 c 3,-114 3,-118 23,-113 66,17 235,-47 320,-121 24,-22 62,-49 84,-61 l 40,-22 -45,5 c -25,3 -100,26 -165,53 l -120,47 h -125 c -133,-1 -125,1 -350,-79 -58,-20 -88,-26 -133,-23 -82,6 -109,35 -146,158 -54,176 -58,219 -19,220 3,0 61,9 129,21 99,16 454,41 494,34 6,-1 11,-51 13,-119 z"
         sodipodi:nodetypes="ccsccccccccccccccccccccsccccccccccccscsccccscssccscsccccccccssccssccscsssccsscsccccsccssscccccccccccccccscccccccscsccccccccccsccssccccccccccccccccc" />
      <path
         id="pNnNIZWF4"
         d="M1637 2762 c-18 -19 -22 -68 -9 -89 4 -6 20 -16 35 -22 71 -27 130 56 77 109 -26 26 -81 26 -103 2z" />
      <path
         id="p1DMpSoO8W"
         d="M1847 2762 c-10 -10 -17 -35 -17 -55 0 -42 19 -57 74 -57 59 0 88 68 46 110 -26 26 -81 26 -103 2z" />
      <path
         id="p14LY16lDQ"
         d="M2056 2761 c-27 -30 -18 -92 16 -109 76 -36 141 54 82 112 -22 22 -77 20 -98 -3z" />
      <path
         id="pRPATjAbm"
         d="M414 2745 c-23 -35 -7 -70 36 -79 18 -3 171 -6 341 -6 296 0 310 1 329 20 24 24 25 38 4 68 -15 22 -15 22 -354 22 l-340 0 -16 -25z" />
      <path
         id="pJZXrUiPd"
         d="M1368 2759 c-25 -14 -24 -75 1 -89 54 -29 99 49 49 84 -26 19 -27 19 -50 5z" />
      <path
         id="prn6yjF4z"
         d="M2259 2736 c-10 -20 -9 -30 5 -51 20 -30 46 -32 71 -5 28 31 10 74 -33 78 -26 3 -34 -1 -43 -22z" />
    </g>
  </g>
</svg>
