<svg xmlns="http://www.w3.org/2000/svg" width="27.849401" height="21.424999" viewBox="0 0 22.279521 17.139999"><path id="discord-icon" d="m 18.872019,1.44 a 18.2,18.2 0 0 0 -4.6,-1.44 c -0.21,0.4 -0.4,0.8 -0.58,1.21 -1.69,-0.25 -3.4,-0.25 -5.1000005,0 -0.18,-0.41 -0.37,-0.82 -0.59,-1.2 -1.6,0.27 -3.14,0.75 -4.6,1.43 A 19.04,19.04 0 0 0 0.10201851,14.27 18.43,18.43 0 0 0 5.7320185,17.14 c 0.46,-0.62 0.86,-1.28 1.2,-1.98 -0.65,-0.25 -1.29,-0.55 -1.9,-0.92 0.17,-0.12 0.32,-0.24 0.47,-0.37 3.58,1.7 7.7000005,1.7 11.2800005,0 l 0.46,0.37 c -0.6,0.36 -1.25,0.67 -1.9,0.92 0.35,0.7 0.75,1.35 1.2,1.98 2.03,-0.63 3.94,-1.6 5.64,-2.87 0.47,-4.87 -0.78,-9.09 -3.3,-12.83 z M 7.4420185,11.69 c -1.1,0 -2,-1.02 -2,-2.27 0,-1.24 0.88,-2.26 2,-2.26 1.12,0 2.02,1.02 2,2.26 0,1.25 -0.89,2.27 -2,2.27 z m 7.4000005,0 c -1.1,0 -2,-1.02 -2,-2.27 0,-1.24 0.88,-2.26 2,-2.26 1.12,0 2.02,1.02 2,2.26 0,1.25 -0.88,2.27 -2,2.27 z"></path></svg>