<svg viewBox="0 0 43.101562 32" width="43.101562" height="32" id="root" version="1.1" xmlns="http://www.w3.org/2000/svg" xmlns:svg="http://www.w3.org/2000/svg"><path d="M 41.898438,5.5 C 41.5,3.300781 39.601563,1.699219 37.398438,1.199219 34.101563,0.5 28,0 21.398438,0 14.800781,0 8.601563,0.5 5.300781,1.199219 c -2.199218,0.5 -4.101562,2 -4.5,4.300781 C 0.398438,8 0,11.5 0,16 c 0,4.5 0.398438,8 0.898438,10.5 0.402343,2.199219 2.300781,3.800781 4.5,4.300781 C 8.898438,31.5 14.898438,32 21.5,32 c 6.601563,0 12.601563,-0.5 16.101563,-1.199219 2.199218,-0.5 4.097656,-2 4.5,-4.300781 C 42.5,24 43,20.398438 43.101563,16 42.898438,11.5 42.398438,8 41.898438,5.5 Z M 16,23 V 9 l 12.199219,7 z"/></svg>